<svg xmlns="http://www.w3.org/2000/svg" viewBox="0 0 512 512">
  <defs>
    <linearGradient id="bg" x1="64" y1="48" x2="448" y2="464" gradientUnits="userSpaceOnUse">
      <stop offset="0" stop-color="#3b82f6"/>
      <stop offset="0.52" stop-color="#2563eb"/>
      <stop offset="1" stop-color="#06b6d4"/>
    </linearGradient>
    <radialGradient id="light" cx="172" cy="128" r="392" gradientUnits="userSpaceOnUse">
      <stop offset="0" stop-color="#ffffff" stop-opacity="0.26"/>
      <stop offset="1" stop-color="#ffffff" stop-opacity="0"/>
    </radialGradient>
    <linearGradient id="paper" x1="256" y1="176" x2="256" y2="336" gradientUnits="userSpaceOnUse">
      <stop offset="0" stop-color="#ffffff"/>
      <stop offset="1" stop-color="#e8eef7"/>
    </linearGradient>
    <linearGradient id="back" x1="256" y1="176" x2="256" y2="336" gradientUnits="userSpaceOnUse">
      <stop offset="0" stop-color="#dbe8fb"/>
      <stop offset="1" stop-color="#bcd2f2"/>
    </linearGradient>
    <linearGradient id="star" x1="202" y1="198" x2="300" y2="300" gradientUnits="userSpaceOnUse">
      <stop offset="0" stop-color="#fde68a"/>
      <stop offset="0.55" stop-color="#fbbf24"/>
      <stop offset="1" stop-color="#f59e0b"/>
    </linearGradient>
  </defs>

  <rect width="512" height="512" fill="url(#bg)"/>
  <rect width="512" height="512" fill="url(#light)"/>

  <!-- back coupon (the "book": a stack/collection) -->
  <g transform="rotate(11 256 256) translate(2 -20)">
    <g transform="translate(0 7)"><path d="M158 176 L354 176 A30 30 0 0 1 384 206 L384 234 A22 22 0 0 0 384 278 L384 306 A30 30 0 0 1 354 336 L158 336 A30 30 0 0 1 128 306 L128 278 A22 22 0 0 0 128 234 L128 206 A30 30 0 0 1 158 176 Z" fill="#06184a" opacity="0.12"/></g>
    <path d="M158 176 L354 176 A30 30 0 0 1 384 206 L384 234 A22 22 0 0 0 384 278 L384 306 A30 30 0 0 1 354 336 L158 336 A30 30 0 0 1 128 306 L128 278 A22 22 0 0 0 128 234 L128 206 A30 30 0 0 1 158 176 Z" fill="url(#back)"/>
  </g>

  <!-- front coupon with reward star -->
  <g transform="rotate(-7 256 256)">
    <g transform="translate(0 17)"><path d="M158 176 L354 176 A30 30 0 0 1 384 206 L384 234 A22 22 0 0 0 384 278 L384 306 A30 30 0 0 1 354 336 L158 336 A30 30 0 0 1 128 306 L128 278 A22 22 0 0 0 128 234 L128 206 A30 30 0 0 1 158 176 Z" fill="#06184a" opacity="0.10"/></g>
    <g transform="translate(0 8)"><path d="M158 176 L354 176 A30 30 0 0 1 384 206 L384 234 A22 22 0 0 0 384 278 L384 306 A30 30 0 0 1 354 336 L158 336 A30 30 0 0 1 128 306 L128 278 A22 22 0 0 0 128 234 L128 206 A30 30 0 0 1 158 176 Z" fill="#06184a" opacity="0.13"/></g>
    <path d="M158 176 L354 176 A30 30 0 0 1 384 206 L384 234 A22 22 0 0 0 384 278 L384 306 A30 30 0 0 1 354 336 L158 336 A30 30 0 0 1 128 306 L128 278 A22 22 0 0 0 128 234 L128 206 A30 30 0 0 1 158 176 Z" fill="url(#paper)"/>
    <path d="M256 198 L268.93 236.2 L309.26 236.7 L276.92 260.8 L288.92 299.3 L256 276 L223.08 299.3 L235.08 260.8 L202.74 236.7 L243.07 236.2 Z" fill="url(#star)" stroke="#f7b733" stroke-width="6" stroke-linejoin="round"/>
  </g>
</svg>
